HIERARCHY
ROOT Hips
{
  OFFSET 45.7541 100.654 -16.37
  CHANNELS 6 Xposition Yposition Zposition Zrotation Xrotation Yrotation
  JOINT Chest
  {
    OFFSET 1.23234e-007 14.8421 1.27322e-009
    CHANNELS 6 Xposition Yposition Zposition Zrotation Xrotation Yrotation
    JOINT Neck
    {
      OFFSET 0.51659 29.8236 6.51843
      CHANNELS 6 Xposition Yposition Zposition Zrotation Xrotation Yrotation
      JOINT Head
      {
        OFFSET 1.16803e-007 7.47049 6.44171e-007
        CHANNELS 6 Xposition Yposition Zposition Zrotation Xrotation Yrotation
        End Site
        {
          OFFSET -4.32676e-008 16.2908 2.16786e-007
        }
      }
    }
    JOINT LeftCollar
    {
      OFFSET 6.64893 27.3161 3.27471
      CHANNELS 6 Xposition Yposition Zposition Zrotation Xrotation Yrotation
      JOINT LeftUpArm
      {
        OFFSET 10.8584 2.41798 -0.945791
        CHANNELS 6 Xposition Yposition Zposition Zrotation Xrotation Yrotation
        JOINT LeftLowArm
        {
          OFFSET 3.77631 -24.5904 -1.70468
          CHANNELS 6 Xposition Yposition Zposition Zrotation Xrotation Yrotation
          JOINT LeftHand
          {
            OFFSET 1.01026 -21.1231 1.74131
            CHANNELS 6 Xposition Yposition Zposition Zrotation Xrotation Yrotation
            End Site
            {
              OFFSET 1.17583e-006 -9.81266 -2.89439e-008
            }
          }
        }
      }
    }
    JOINT RightCollar
    {
      OFFSET -6.11406 27.2248 4.23427
      CHANNELS 6 Xposition Yposition Zposition Zrotation Xrotation Yrotation
      JOINT RightUpArm
      {
        OFFSET -10.4566 2.3285 -0.910794
        CHANNELS 6 Xposition Yposition Zposition Zrotation Xrotation Yrotation
        JOINT RightLowArm
        {
          OFFSET -3.86856 -25.191 -1.74633
          CHANNELS 6 Xposition Yposition Zposition Zrotation Xrotation Yrotation
          JOINT RightHand
          {
            OFFSET -1.04759 -20.6242 1.75213
            CHANNELS 6 Xposition Yposition Zposition Zrotation Xrotation Yrotation
            End Site
            {
              OFFSET -2.03487e-006 -9.50367 -4.31372e-006
            }
          }
        }
      }
    }
  }
  JOINT LeftUpLeg
  {
    OFFSET 9 -3.38008e-006 -5.22999e-009
    CHANNELS 6 Xposition Yposition Zposition Zrotation Xrotation Yrotation
    JOINT LeftLowLeg
    {
      OFFSET -0.575 -51.431 3.90177
      CHANNELS 6 Xposition Yposition Zposition Zrotation Xrotation Yrotation
      JOINT LeftFoot
      {
        OFFSET 2.13082e-007 -43.5882 -3.90177
        CHANNELS 6 Xposition Yposition Zposition Zrotation Xrotation Yrotation
        End Site
        {
          OFFSET 7.44796e-007 -6.93413 15.0046
        }
      }
    }
  }
  JOINT RightUpLeg
  {
    OFFSET -9 6.86154e-007 -3.19548e-009
    CHANNELS 6 Xposition Yposition Zposition Zrotation Xrotation Yrotation
    JOINT RightLowLeg
    {
      OFFSET 0.575 -51.4311 3.90177
      CHANNELS 6 Xposition Yposition Zposition Zrotation Xrotation Yrotation
      JOINT RightFoot
      {
        OFFSET -7.46079e-007 -43.5882 -3.90177
        CHANNELS 6 Xposition Yposition Zposition Zrotation Xrotation Yrotation
        End Site
        {
          OFFSET 4.66716e-007 -6.93413 15.0046
        }
      }
    }
  }
}
MOTION
Frames:	10
Frame Time:	0.0333333
135.356 84.2631 -75.0479 4.96081 -20.2209 -160.837 1.23234e-007 14.8421 1.27327e-009 5.64322 6.85612 -16.093 0.51659 29.8236 6.51843 10.0337 -23.0291 -0.764386 1.16803e-007 7.47049 6.44171e-007 -1.07969 12.5177 1.17233 6.64893 27.3161 3.27471 -2.94784 5.93879 -4.20517 10.8584 2.41798 -0.945791 6.87959 -25.8504 -18.9063 3.77631 -24.5904 -1.70468 5.09074 -66.292 -32.6823 1.01026 -21.1231 1.74131 21.8886 7.92426 1.38216 -6.11406 27.2248 4.23427 -1.96452 7.32629 3.42623 -10.4566 2.3285 -0.910794 -51.6643 -30.3885 8.2349 -3.86856 -25.191 -1.74633 -22.2027 -42.5104 57.0344 -1.04759 -20.6242 1.75213 -35.0803 11.2544 -1.42691 9 -3.38008e-006 -5.23e-009 33.9158 -9.95679 24.5411 -0.575 -51.431 3.90177 -5.11237 9.91428 -2.07157 2.1308e-007 -43.5882 -3.90177 -17.6571 13.9512 3.97642 -9 6.86154e-007 -3.1953e-009 -16.3076 -56.3153 -21.0585 0.575 -51.4311 3.90177 -8.45893 49.837 -5.68062 -7.46079e-007 -43.5882 -3.90177 -6.41464 -10.7666 0.12932 
138.354 85.1811 -76.8648 5.99364 -18.5734 -153.114 1.23234e-007 14.8421 1.27333e-009 3.89199 7.28621 -11.8428 0.51659 29.8236 6.51843 11.0314 -24.3659 -1.45381 1.16803e-007 7.47049 6.44171e-007 -2.27689 12.8472 0.891715 6.64893 27.3161 3.27471 -2.94784 5.93879 -4.20517 10.8584 2.41798 -0.945791 9.39202 -18.6554 -17.5717 3.77631 -24.5904 -1.70468 -1.62769 -68.0275 -39.1562 1.01026 -21.1231 1.74131 20.5588 7.03859 1.40604 -6.11406 27.2248 4.23427 -1.96452 7.32629 3.42623 -10.4566 2.3285 -0.910794 -50.1169 -32.7912 9.7891 -3.86856 -25.191 -1.74633 -22.9403 -37.3348 59.2695 -1.04759 -20.6242 1.75213 -35.932 11.2683 -1.44038 9 -3.38008e-006 -5.23001e-009 33.8698 -16.9138 25.681 -0.575 -51.431 3.90177 -5.57367 16.5167 -7.24791 2.1308e-007 -43.5882 -3.90177 -15.254 11.0029 3.02806 -9 6.86154e-007 -3.1953e-009 -15.5894 -52.8314 -20.466 0.575 -51.4311 3.90177 -8.53072 49.657 -6.71192 -7.46079e-007 -43.5882 -3.90177 -6.83987 -12.1891 0.0615103 
141.18 86.1315 -79.0032 7.18311 -16.5942 -145.431 1.23233e-007 14.8421 1.2734e-009 3.65298 6.51015 -8.39042 0.51659 29.8236 6.51843 9.79101 -24.6311 -1.86077 1.16803e-007 7.47049 6.44171e-007 -1.92096 13.6969 0.257904 6.64893 27.3161 3.27471 -2.94784 5.93879 -4.20517 10.8584 2.41798 -0.945791 10.8935 -13.0409 -16.4668 3.77631 -24.5904 -1.70468 -2.44619 -66.6675 -40.1222 1.01026 -21.1231 1.74131 19.4737 6.28018 1.42203 -6.11406 27.2248 4.23427 -1.96452 7.32629 3.42623 -10.4566 2.3285 -0.910794 -47.9892 -35.6387 12.6963 -3.86856 -25.191 -1.74633 -23.2592 -32.9371 62.4221 -1.04759 -20.6242 1.75213 -36.5733 11.9094 -1.29035 9 -3.38008e-006 -5.23002e-009 33.0488 -22.8372 26.3041 -0.575 -51.431 3.90177 -5.96201 22.9341 -10.6366 2.1308e-007 -43.5882 -3.90177 -12.5403 8.35648 2.20044 -9 6.86154e-007 -3.1953e-009 -14.1571 -49.1219 -19.7517 0.575 -51.4311 3.90177 -7.83675 48.9651 -8.81279 -7.46079e-007 -43.5882 -3.90177 -7.32262 -13.7474 -0.0267501 
143.717 87.1281 -81.4844 7.92761 -14.5974 -138.001 1.23234e-007 14.8421 1.27346e-009 3.89758 5.52111 -6.11264 0.51659 29.8236 6.51843 7.97169 -24.3015 -2.15186 1.16803e-007 7.47049 6.44171e-007 -0.918081 14.5793 -0.477409 6.64893 27.3161 3.27471 -2.94784 5.93879 -4.20517 10.8584 2.41798 -0.945791 12.2111 -8.503 -14.3355 3.77631 -24.5904 -1.70468 -1.6544 -64.1717 -39.317 1.01026 -21.1231 1.74131 19.3254 6.06627 1.43284 -6.11406 27.2248 4.23427 -1.96452 7.32629 3.42623 -10.4566 2.3285 -0.910794 -44.6965 -38.9773 15.5495 -3.86856 -25.191 -1.74633 -22.9095 -29.6426 63.8454 -1.04759 -20.6242 1.75213 -37.2859 11.4704 -1.42392 9 -3.38008e-006 -5.23003e-009 30.7689 -27.5302 26.0533 -0.575 -51.431 3.90177 -6.40304 29.0614 -10.9214 2.1308e-007 -43.5882 -3.90177 -9.58307 5.69348 1.44706 -9 6.86154e-007 -3.1953e-009 -12.5546 -45.329 -19.0347 0.575 -51.4311 3.90177 -6.9442 47.775 -11.5323 -7.46079e-007 -43.5882 -3.90177 -7.79502 -15.2148 -0.121483 
145.806 88.1098 -84.2199 8.27712 -12.6835 -129.949 1.23234e-007 14.8421 1.27352e-009 3.44553 4.63168 -4.81703 0.51659 29.8236 6.51843 7.71599 -22.7578 -2.72272 1.16803e-007 7.47049 6.44171e-007 -0.755649 14.1301 -0.948017 6.64893 27.3161 3.27471 -2.94784 5.93879 -4.20517 10.8584 2.41798 -0.945791 13.3893 -5.20965 -11.6738 3.77631 -24.5904 -1.70468 -1.43757 -61.6261 -38.6118 1.01026 -21.1231 1.74131 18.5947 5.92591 1.39354 -6.11406 27.2248 4.23427 -1.96452 7.32629 3.42623 -10.4566 2.3285 -0.910794 -39.8087 -40.9937 17.8746 -3.86856 -25.191 -1.74633 -22.8129 -26.9876 63.998 -1.04759 -20.6242 1.75213 -37.5722 11.0248 -1.54985 9 -3.38008e-006 -5.23004e-009 26.3791 -31.2597 24.2019 -0.575 -51.431 3.90177 -6.97206 34.7033 -10.2057 2.1308e-007 -43.5882 -3.90177 -5.88734 2.60846 0.735336 -9 6.86154e-007 -3.19531e-009 -11.7187 -41.3415 -19.2653 0.575 -51.4311 3.90177 -5.67703 46.3747 -15.1627 -7.46079e-007 -43.5882 -3.90177 -8.00805 -16.3528 -0.195938 
147.469 88.9596 -87.238 8.83034 -10.5403 -122.106 1.23234e-007 14.8421 1.27358e-009 2.86869 4.0172 -3.83071 0.51659 29.8236 6.51843 8.63033 -22.3466 -3.18479 1.16803e-007 7.47049 6.44171e-007 -1.18659 13.9535 -1.08761 6.64893 27.3161 3.27471 -2.94784 5.93879 -4.20517 10.8584 2.41798 -0.945791 15.0261 -2.07353 -8.27954 3.77631 -24.5904 -1.70468 -2.82086 -60.0447 -40.0344 1.01026 -21.1231 1.74131 17.9136 6.3426 1.30503 -6.11406 27.2248 4.23427 -1.96452 7.32629 3.42623 -10.4566 2.3285 -0.910794 -36.0607 -40.7368 17.9348 -3.86856 -25.191 -1.74633 -21.007 -28.7908 64.0144 -1.04759 -20.6242 1.75213 -37.1909 10.9247 -1.56678 9 -3.38008e-006 -5.23004e-009 21.5612 -33.2056 22.1207 -0.575 -51.431 3.90177 -7.86876 39.3405 -9.47082 2.1308e-007 -43.5882 -3.90177 -1.07206 -1.28611 0.097969 -9 6.86154e-007 -3.19532e-009 -9.92315 -37.7563 -18.796 0.575 -51.4311 3.90177 -4.15744 44.6904 -18.6905 -7.46079e-007 -43.5882 -3.90177 -8.19242 -17.4267 -0.270137 
148.838 89.6794 -90.4277 9.39763 -8.33963 -115.162 1.23234e-007 14.8421 1.27364e-009 2.82442 3.74532 -2.41996 0.51659 29.8236 6.51843 8.14293 -23.6938 -3.48672 1.16803e-007 7.47049 6.44171e-007 -0.639508 14.8733 -1.6758 6.64893 27.3161 3.27471 -2.94784 5.93879 -4.20517 10.8584 2.41798 -0.945791 16.6789 0.595986 -4.60125 3.77631 -24.5904 -1.70468 -4.03049 -58.4451 -39.6568 1.01026 -21.1231 1.74131 16.995 5.68232 1.28945 -6.11406 27.2248 4.23427 -1.96452 7.32629 3.42623 -10.4566 2.3285 -0.910794 -34.7557 -38.8938 15.679 -3.86856 -25.191 -1.74633 -16.8191 -34.9874 64.3915 -1.04759 -20.6242 1.75213 -37.2465 11.0006 -1.54787 9 -3.38008e-006 -5.23005e-009 17.1984 -32.9164 20.3442 -0.575 -51.431 3.90177 -9.01856 42.2499 -6.7091 2.1308e-007 -43.5882 -3.90177 3.02134 -4.87227 -0.201701 -9 6.86154e-007 -3.19533e-009 -6.92971 -34.7459 -17.1323 0.575 -51.4311 3.90177 -2.96485 42.421 -22.9498 -7.46079e-007 -43.5882 -3.90177 -8.52191 -18.3754 -0.350675 
149.877 90.2957 -93.5439 9.78446 -6.42408 -107.946 1.23234e-007 14.8421 1.27369e-009 2.64471 3.44473 -1.45347 0.51659 29.8236 6.51843 7.45144 -24.1372 -3.71515 1.16803e-007 7.47049 6.44171e-007 0.0791508 14.5948 -2.21726 6.64893 27.3161 3.27471 -2.94784 5.93879 -4.20517 10.8584 2.41798 -0.945791 17.7459 2.20303 -1.39849 3.77631 -24.5904 -1.70468 -3.08116 -55.7885 -37.279 1.01026 -21.1231 1.74131 16.4188 4.94457 1.31134 -6.11406 27.2248 4.23427 -1.96452 7.32629 3.42623 -10.4566 2.3285 -0.910794 -33.4255 -35.9393 13.4847 -3.86856 -25.191 -1.74633 -12.17 -40.9972 64.7427 -1.04759 -20.6242 1.75213 -37.3054 10.5308 -1.67522 9 -3.38008e-006 -5.23006e-009 12.4883 -31.2589 17.8662 -0.575 -51.431 3.90177 -9.66108 43.2615 -4.97154 2.1308e-007 -43.5882 -3.90177 6.00127 -7.34109 -0.254695 -9 6.86154e-007 -3.19534e-009 -4.87505 -32.2549 -16.4026 0.575 -51.4311 3.90177 -1.84889 40.3621 -28.5193 -7.46079e-007 -43.5882 -3.90177 -8.26968 -18.5458 -0.342663 
150.396 90.8512 -96.6061 9.74222 -4.22463 -100.815 1.23234e-007 14.8421 1.27373e-009 2.2375 2.27327 -1.06793 0.51659 29.8236 6.51843 8.00194 -22.1598 -3.92589 1.16803e-007 7.47049 6.44171e-007 -0.486447 13.2149 -2.032 6.64893 27.3161 3.27471 -2.94784 5.93879 -4.20517 10.8584 2.41798 -0.945791 18.2723 3.14893 0.955414 3.77631 -24.5904 -1.70468 -0.220933 -51.253 -35.0532 1.01026 -21.1231 1.74131 16.9472 5.58793 1.29941 -6.11406 27.2248 4.23427 -1.96452 7.32629 3.42623 -10.4566 2.3285 -0.910794 -29.6672 -32.3207 14.1321 -3.86856 -25.191 -1.74633 -10.5488 -43.0404 64.1217 -1.04759 -20.6242 1.75213 -36.7079 10.7173 -1.61113 9 -3.38008e-006 -5.23007e-009 8.48404 -28.0961 15.2759 -0.575 -51.431 3.90177 -9.63732 43.0283 -6.04617 2.1308e-007 -43.5882 -3.90177 8.8817 -9.35579 -0.203882 -9 6.86154e-007 -3.19535e-009 -3.35761 -29.7618 -15.8755 0.575 -51.4311 3.90177 -0.898701 38.8808 -30.8023 -7.46079e-007 -43.5882 -3.90177 -7.6643 -18.1374 -0.274506 
150.54 91.1323 -99.4838 9.47687 -3.45305 -93.577 1.23234e-007 14.8421 1.27377e-009 1.92532 0.82389 -0.755693 0.51659 29.8236 6.51843 8.12846 -19.9157 -3.89761 1.16803e-007 7.47049 6.44171e-007 -0.574014 12.6862 -1.80338 6.64893 27.3161 3.27471 -2.94784 5.93879 -4.20517 10.8584 2.41798 -0.945791 18.9 4.13143 3.61084 3.77631 -24.5904 -1.70468 1.65637 -46.9094 -32.488 1.01026 -21.1231 1.74131 17.5509 5.53958 1.35251 -6.11406 27.2248 4.23427 -1.96452 7.32629 3.42623 -10.4566 2.3285 -0.910794 -25.75 -28.5465 15.2401 -3.86856 -25.191 -1.74633 -9.72288 -43.2291 64.1562 -1.04759 -20.6242 1.75213 -36.5772 12.1699 -1.21883 9 -3.38008e-006 -5.23008e-009 6.20455 -24.1707 13.4532 -0.575 -51.431 3.90177 -9.0593 42.022 -7.29447 2.1308e-007 -43.5882 -3.90177 11.4273 -11.3003 -0.0637155 -9 6.86154e-007 -3.19537e-009 -1.41665 -27.4884 -13.269 0.575 -51.4311 3.90177 -1.91771 38.241 -24.5045 -7.46079e-007 -43.5882 -3.90177 -7.62058 -17.6969 -0.247324 
